<?xml version="1.0" encoding="UTF-8" standalone="no"?>
<!-- Created with Inkscape (http://www.inkscape.org/) -->

<svg
   width="87.06366mm"
   height="116.61591mm"
   viewBox="0 0 87.06366 116.61591"
   version="1.1"
   id="svg1"
   xml:space="preserve"
   xmlns:inkscape="http://www.inkscape.org/namespaces/inkscape"
   xmlns:sodipodi="http://sodipodi.sourceforge.net/DTD/sodipodi-0.dtd"
   xmlns="http://www.w3.org/2000/svg"
   xmlns:svg="http://www.w3.org/2000/svg"><sodipodi:namedview
     id="namedview1"
     pagecolor="#ffffff"
     bordercolor="#000000"
     borderopacity="0.25"
     inkscape:showpageshadow="2"
     inkscape:pageopacity="0.0"
     inkscape:pagecheckerboard="0"
     inkscape:deskcolor="#d1d1d1"
     inkscape:document-units="mm" /><defs
     id="defs1" /><g
     inkscape:label="Ebene 1"
     inkscape:groupmode="layer"
     id="layer1"
     transform="translate(-54.916696,-159.69717)"><path
       id="path3"
       style="fill:#000000;stroke-width:0.221499"
       inkscape:transform-center-x="-0.015412378"
       inkscape:transform-center-y="3.3723566"
       d="m 54.971624,248.56851 -0.05493,25.92828 25.154485,-10.09711 -12.549575,-7.91588 8.848782,5.58225 -18.053619,7.57424 0.35593,-18.73747 z" /><g
       id="g11"
       transform="translate(64.145338,3.9790827)"><path
         id="rect2"
         style="fill:#000000;stroke-width:0.319643"
         d="m 52.73174,155.72145 c -0.009,-0.006 -0.0214,-0.004 -0.0284,0.006 l -61.9058229,88.9037 c -0.0062,0.009 -0.0037,0.0211 0.0057,0.027 L 15.89749,260.42657 c 0.0093,0.006 0.02195,0.004 0.02833,-0.006 l 61.90582,-88.9037 c 0.006,-0.009 0.004,-0.0209 -0.006,-0.0269 z m 1.01392,6.43702 17.44713,10.96321 c 0.008,0.005 0.0116,0.0163 0.006,0.0249 l -56.289224,80.83764 c -0.0049,0.007 -0.01774,0.0107 -0.02655,0.005 l -17.4471319,-10.9632 c -0.0085,-0.005 -0.01049,-0.0168 -0.0049,-0.0249 L 53.72021,162.16349 c 0.006,-0.008 0.0172,-0.0105 0.0258,-0.005 z" /><rect
         style="fill:#000000;stroke-width:0.319821"
         id="rect3"
         width="29.657347"
         height="4.9163575"
         x="132.39665"
         y="121.93757"
         ry="0.019853963"
         transform="matrix(0.84671448,0.53204755,-0.57143627,0.82064644,0,0)" /><rect
         style="fill:#000000;stroke-width:0.319821"
         id="rect4"
         width="7.1530356"
         height="6.0086179"
         x="143.64833"
         y="222.86845"
         ry="0.019853963"
         transform="matrix(0.84671448,0.53204755,-0.57143627,0.82064644,0,0)" /><rect
         style="fill:#000000;stroke-width:0.0676079"
         id="rect6"
         width="2.496403"
         height="82.496048"
         x="140.49841"
         y="118.86768"
         transform="rotate(34.573276)"
         ry="0.020620491" /><rect
         style="fill:#000000;stroke-width:0.0676079"
         id="rect6-1"
         width="2.496403"
         height="82.496048"
         x="149.38228"
         y="120.38279"
         transform="rotate(34.573276)"
         ry="0.020620491" /><rect
         style="fill:#000000;stroke-width:0.284008"
         id="rect5"
         width="76.754692"
         height="5.8178029"
         x="-9.2286329"
         y="266.5162"
         ry="0.016013304" /></g></g></svg>
